<?xml version="1.0" encoding="UTF-8"?>
<svg version="1.1" xmlns="http://www.w3.org/2000/svg" width="204" height="192">
<path d="M0 0 C67.32 0 134.64 0 204 0 C204 63.36 204 126.72 204 192 C136.68 192 69.36 192 0 192 C0 128.64 0 65.28 0 0 Z " fill="#FDFDFD" transform="translate(0,0)"/>
<path d="M0 0 C9.81574774 -0.27118447 18.64528869 0.73085937 28.19921875 3.15625 C29.26398438 3.41148438 30.32875 3.66671875 31.42578125 3.9296875 C44.68581465 7.51614815 57.65488836 14.17685042 67.19921875 24.15625 C65.61490422 28.06476199 62.9328678 30.67992356 59.97265625 33.578125 C59.21113754 34.33539886 59.21113754 34.33539886 58.43423462 35.10797119 C56.81888033 36.71217096 55.19669666 38.30925856 53.57421875 39.90625 C52.47480177 40.99563107 51.37583816 42.0854699 50.27734375 43.17578125 C47.58985855 45.84126885 44.89622854 48.50040143 42.19921875 51.15625 C39.31842843 50.07823439 37.23335849 49.18383087 34.8203125 47.234375 C23.32935555 38.12381003 8.1764122 37.68214793 -5.80078125 39.15625 C-19.66810638 41.67089751 -31.68122617 50.72150204 -39.85546875 61.98828125 C-41.90872964 65.33204547 -43.46918215 68.66509121 -44.98828125 72.28125 C-45.49746094 73.48007813 -46.00664063 74.67890625 -46.53125 75.9140625 C-51.348684 88.21704779 -50.41198435 104.16415918 -45.2734375 116.1875 C-44.78746094 117.1671875 -44.30148438 118.146875 -43.80078125 119.15625 C-43.36636719 120.0534375 -42.93195312 120.950625 -42.484375 121.875 C-35.37039677 135.00849828 -23.75483219 143.54737777 -9.80078125 148.15625 C6.32030345 152.66404146 21.73608014 149.49178041 36.19921875 141.46875 C46.97877503 134.82762732 52.19691708 125.16545668 55.19921875 113.15625 C38.69921875 113.15625 22.19921875 113.15625 5.19921875 113.15625 C5.19921875 101.27625 5.19921875 89.39625 5.19921875 77.15625 C34.23921875 77.15625 63.27921875 77.15625 93.19921875 77.15625 C98.25191359 102.4197242 93.65468625 129.14778125 79.8359375 150.80078125 C69.20984536 166.09322411 56.77552598 174.46212787 40.19921875 182.15625 C39.51859375 182.52492187 38.83796875 182.89359375 38.13671875 183.2734375 C21.41159202 190.89416057 -6.78743576 190.14814329 -23.80078125 184.15625 C-48.47839141 174.50044372 -68.52276667 158.56461671 -79.71923828 134.15380859 C-81.68761773 129.57275197 -83.31912664 124.91483072 -84.80078125 120.15625 C-85.14109375 119.08632812 -85.48140625 118.01640625 -85.83203125 116.9140625 C-90.22958539 100.2603621 -89.34312607 81.38481522 -83.80078125 65.15625 C-83.24003906 63.4546875 -83.24003906 63.4546875 -82.66796875 61.71875 C-73.70879381 36.56186142 -55.48959375 19.16009198 -31.94921875 7.515625 C-25.72713298 4.57494058 -19.57445967 2.48370913 -12.80078125 1.15625 C-12.05699219 1.00929687 -11.31320313 0.86234375 -10.546875 0.7109375 C-7.04305007 0.19234482 -3.53701699 0.14540666 0 0 Z " fill="#34A853" transform="translate(96.80078125,1.84375)"/>
<path d="M0 0 C9.81574774 -0.27118447 18.64528869 0.73085937 28.19921875 3.15625 C29.26398438 3.41148438 30.32875 3.66671875 31.42578125 3.9296875 C44.68581465 7.51614815 57.65488836 14.17685042 67.19921875 24.15625 C65.61490422 28.06476199 62.9328678 30.67992356 59.97265625 33.578125 C59.21113754 34.33539886 59.21113754 34.33539886 58.43423462 35.10797119 C56.81888033 36.71217096 55.19669666 38.30925856 53.57421875 39.90625 C52.47480177 40.99563107 51.37583816 42.0854699 50.27734375 43.17578125 C47.58985855 45.84126885 44.89622854 48.50040143 42.19921875 51.15625 C39.31842843 50.07823439 37.23335849 49.18383087 34.8203125 47.234375 C23.32935555 38.12381003 8.1764122 37.68214793 -5.80078125 39.15625 C-19.66810638 41.67089751 -31.68122617 50.72150204 -39.85546875 61.98828125 C-41.90872964 65.33204547 -43.46918215 68.66509121 -44.98828125 72.28125 C-45.49746094 73.48007813 -46.00664063 74.67890625 -46.53125 75.9140625 C-48.18926046 80.14836613 -48.92755833 83.53086888 -48.93359375 88.078125 C-48.93488281 89.02171875 -48.93617187 89.9653125 -48.9375 90.9375 C-48.93169922 92.40703125 -48.93169922 92.40703125 -48.92578125 93.90625 C-48.92964844 94.87046875 -48.93351562 95.8346875 -48.9375 96.828125 C-48.93556641 98.25125 -48.93556641 98.25125 -48.93359375 99.703125 C-48.93286865 100.63439209 -48.93214355 101.56565918 -48.93139648 102.52514648 C-48.80969025 104.97678782 -48.36656024 107.05397503 -47.78125 109.42578125 C-47.80078125 113.15625 -47.80078125 113.15625 -49.21289062 114.93994141 C-51.38141933 116.82499885 -53.62290487 118.46269664 -55.98828125 120.09375 C-56.80731934 120.69203613 -57.62635742 121.29032227 -58.47021484 121.90673828 C-60.12178794 123.11085519 -61.78160959 124.30374426 -63.44970703 125.48486328 C-66.1261583 127.38756166 -68.74639456 129.35521791 -71.3605957 131.34204102 C-73.49483931 132.96361341 -75.64740477 134.56021802 -77.80078125 136.15625 C-80.0630193 133.38814053 -81.36305959 131.02519505 -82.37109375 127.6015625 C-82.62761719 126.73917969 -82.88414063 125.87679687 -83.1484375 124.98828125 C-83.40496094 124.09496094 -83.66148438 123.20164062 -83.92578125 122.28125 C-84.19003906 121.39566406 -84.45429687 120.51007813 -84.7265625 119.59765625 C-89.89314814 101.99979348 -89.73897976 82.54391622 -83.80078125 65.15625 C-83.24003906 63.4546875 -83.24003906 63.4546875 -82.66796875 61.71875 C-73.70879381 36.56186142 -55.48959375 19.16009198 -31.94921875 7.515625 C-25.72713298 4.57494058 -19.57445967 2.48370913 -12.80078125 1.15625 C-12.05699219 1.00929687 -11.31320313 0.86234375 -10.546875 0.7109375 C-7.04305007 0.19234482 -3.53701699 0.14540666 0 0 Z " fill="#EA4435" transform="translate(96.80078125,1.84375)"/>
<path d="M0 0 C29.04 0 58.08 0 88 0 C93.06508858 25.32544292 88.39359709 51.86793103 74.67578125 73.609375 C65.68230277 86.43923241 65.68230277 86.43923241 61 88 C59.28930664 87.07885742 59.28930664 87.07885742 57.41015625 85.60546875 C56.7133374 85.06623779 56.01651855 84.52700684 55.29858398 83.97143555 C54.56067627 83.38273682 53.82276855 82.79403809 53.0625 82.1875 C51.93146851 81.30348511 51.93146851 81.30348511 50.77758789 80.40161133 C44.40972064 75.39852836 38.15931358 70.25737171 32 65 C32.74121094 64.27167969 33.48242188 63.54335937 34.24609375 62.79296875 C42.20281175 54.72338951 47.24530077 47.01879692 50 36 C33.5 36 17 36 0 36 C0 24.12 0 12.24 0 0 Z " fill="#4285F3" transform="translate(102,79)"/>
<path d="M0 0 C3.87881315 2.02021518 7.20211174 4.05284232 10.4375 7 C16.86851794 12.84289304 24.01658701 17.84503156 31 23 C30.83757813 24.093125 30.67515625 25.18625 30.5078125 26.3125 C29.85622036 31.54365667 29.85348081 36.7349724 29.875 42 C29.87113281 42.94617188 29.86726563 43.89234375 29.86328125 44.8671875 C29.86521484 46.26324219 29.86521484 46.26324219 29.8671875 47.6875 C29.8679126 48.59363037 29.8686377 49.49976074 29.86938477 50.43334961 C29.99252514 52.85311553 30.4421042 54.91178997 31.01953125 57.25390625 C31 61 31 61 29.58789062 62.78466797 C27.41913006 64.6688711 25.17756274 66.30666291 22.8125 67.9375 C21.99346191 68.53578613 21.17442383 69.13407227 20.33056641 69.75048828 C18.67899331 70.95460519 17.01917166 72.14749426 15.35107422 73.32861328 C12.67462295 75.23131166 10.05438669 77.19896791 7.44018555 79.18579102 C5.30594194 80.80736341 3.15337648 82.40396802 1 84 C-1.26223805 81.23189053 -2.56227834 78.86894505 -3.5703125 75.4453125 C-3.82683594 74.58292969 -4.08335938 73.72054687 -4.34765625 72.83203125 C-4.60417969 71.93871094 -4.86070313 71.04539062 -5.125 70.125 C-5.38925781 69.23941406 -5.65351563 68.35382813 -5.92578125 67.44140625 C-12.72809254 44.27211246 -9.13943018 21.87470174 0 0 Z " fill="#FABB06" transform="translate(18,54)"/>
</svg>
